<?xml version="1.0" encoding="UTF-8"?>
<!DOCTYPE svg PUBLIC "-//W3C//DTD SVG 1.1//EN" "http://www.w3.org/Graphics/SVG/1.1/DTD/svg11.dtd">
<!-- Creator: CorelDRAW -->
<svg xmlns="http://www.w3.org/2000/svg" xml:space="preserve" width="100px" height="100px" version="1.1" style="shape-rendering:geometricPrecision; text-rendering:geometricPrecision; image-rendering:optimizeQuality; fill-rule:evenodd; clip-rule:evenodd"
viewBox="0 0 100 100"
 xmlns:xlink="http://www.w3.org/1999/xlink"
 xmlns:xodm="http://www.corel.com/coreldraw/odm/2003">
 <defs>
  <style type="text/css">
   <![CDATA[
    .fil0 {fill:none}
    .fil1 {fill:#B7AB98}
   ]]>
  </style>
 </defs>
 <g id="Layer_x0020_1">
  <metadata id="CorelCorpID_0Corel-Layer"/>
  <rect class="fil0" width="100" height="100"/>
  <path class="fil1" d="M59.726 71.499l-5.245 -10.095 -3.207 6.172c-0.706,1.359 -2.018,2.156 -3.549,2.156l-13.402 0c8.146,-15.678 16.271,-31.341 24.437,-47.031l-6.631 -12.761c-0.423,-0.815 -1.211,-1.294 -2.129,-1.294 -0.919,0 -1.706,0.479 -2.13,1.294l-33.808 65.066 43.535 0c0.862,0 1.603,-0.417 2.051,-1.154 0.448,-0.737 0.476,-1.587 0.078,-2.353zm21.344 -58.853l0 1.71 -2.06 0 0 6.016 -2.148 0 0 -6.016 -2.038 0 0 -1.71 6.246 0zm9.818 0l0 7.726 -2.148 0 0 -4.263 -1.457 4.263 -1.797 0 -1.468 -4.296 0 4.296 -2.148 0 0 -7.726 2.597 0 1.939 5.019 1.896 -5.019 2.586 0zm-18.687 78.708l18.278 0c0.863,0 1.604,-0.417 2.052,-1.155 0.447,-0.737 0.476,-1.587 0.078,-2.352l-30.879 -59.43 -8.767 16.845 19.318 37.18c0.619,1.193 0.619,2.496 0,3.689l-1.499 2.885c-0.266,0.51 -0.247,1.077 0.052,1.568 0.298,0.492 0.792,0.77 1.367,0.77zm-62.681 0l18.278 0c0.575,0 1.069,-0.278 1.368,-0.77 0.298,-0.491 0.317,-1.058 0.052,-1.568l-1.499 -2.885c-0.62,-1.193 -0.614,-2.493 0,-3.689l1.599 -3.114 -17.52 0 -4.408 8.519c-0.396,0.766 -0.369,1.615 0.079,2.352 0.447,0.738 1.188,1.155 2.051,1.155z"/>
 </g>
</svg>
